<?xml version="1.0" standalone="no"?>
<!DOCTYPE svg PUBLIC "-//W3C//DTD SVG 20010904//EN"
 "http://www.w3.org/TR/2001/REC-SVG-20010904/DTD/svg10.dtd">
<svg version="1.0" xmlns="http://www.w3.org/2000/svg"
 width="2635.000000pt" height="755.000000pt" viewBox="0 0 2635.000000 755.000000"
 preserveAspectRatio="xMidYMid meet">

<g transform="translate(0.000000,755.000000) scale(0.100000,-0.100000)"
fill="#000000" stroke="none">
<path d="M21836 7025 c-259 -42 -487 -154 -699 -340 -105 -93 -124 -114 -246
-270 -105 -134 -330 -420 -601 -765 -85 -109 -241 -307 -346 -441 -105 -134
-264 -336 -353 -448 -183 -232 -173 -208 -146 -381 22 -134 67 -303 110 -407
76 -185 223 -409 352 -535 l58 -57 130 212 c798 1301 1485 2203 1930 2532 297
219 475 263 727 177 283 -97 482 -382 519 -744 35 -333 -94 -738 -327 -1025
-26 -32 -26 -33 -10 -73 9 -22 16 -53 16 -68 l1 -27 24 30 c59 72 163 237 211
334 68 141 138 348 166 496 32 169 32 464 -1 640 -67 372 -260 700 -530 903
-260 196 -684 306 -985 257z"/>
<path d="M5590 6880 c-8 -5 -29 -10 -46 -10 -70 0 -306 -63 -404 -107 -197
-89 -365 -195 -494 -315 -310 -285 -505 -640 -586 -1068 -11 -58 -23 -173 -27
-256 -14 -335 43 -619 179 -888 139 -277 336 -514 593 -715 204 -159 303 -198
393 -152 81 41 46 -49 492 1281 93 278 282 840 420 1250 226 668 251 750 247
797 -4 58 -35 111 -79 138 -17 10 -69 20 -126 26 -53 5 -122 14 -153 19 -72
13 -389 13 -409 0z"/>
<path d="M6942 6735 c-19 -24 -60 -144 -287 -840 -64 -198 -148 -452 -185
-565 -37 -113 -129 -394 -205 -625 -75 -231 -167 -512 -205 -625 -240 -727
-243 -740 -199 -801 44 -62 -21 -59 1119 -59 814 0 1045 3 1063 13 36 20 67
60 73 95 9 46 0 85 -65 282 -32 96 -116 351 -185 565 -143 436 -194 591 -205
620 -4 11 -15 43 -23 70 -16 50 -248 760 -378 1155 -37 113 -80 243 -94 290
-15 47 -31 94 -35 105 -5 11 -25 71 -45 133 -46 143 -62 182 -84 198 -25 19
-38 17 -60 -11z"/>
<path d="M16645 6523 c-101 -110 -439 -645 -520 -823 -99 -216 -184 -501 -217
-725 -20 -139 -17 -532 6 -669 63 -380 246 -781 442 -966 l53 -50 645 0 645 0
25 23 c14 12 129 153 256 312 128 160 235 291 238 292 4 2 20 -34 36 -80 53
-152 149 -323 245 -437 102 -122 22 -110 725 -110 l610 0 -45 48 c-223 233
-371 538 -434 897 -21 119 -22 405 -1 541 55 369 223 772 478 1151 27 40 125
169 218 285 143 179 170 218 170 246 0 44 -14 68 -50 87 -25 13 -115 15 -644
15 -345 0 -625 -4 -639 -9 -13 -5 -122 -131 -248 -288 -123 -153 -282 -350
-353 -438 -71 -88 -356 -442 -634 -787 -278 -346 -510 -628 -515 -628 -18 0 0
373 22 483 46 226 108 406 217 627 105 215 180 330 389 595 104 132 199 255
212 274 34 50 31 95 -11 137 l-34 34 -627 0 -626 0 -34 -37z m2698 -1250 c-99
-281 -138 -506 -137 -795 l1 -207 -301 -383 c-166 -210 -306 -383 -311 -385
-15 -5 -117 152 -166 255 -49 104 -101 258 -97 289 2 12 237 315 523 673 286
357 521 650 521 650 1 0 -14 -44 -33 -97z m-2237 -59 c-99 -295 -133 -637 -91
-915 l7 -45 -302 -375 c-166 -206 -306 -378 -311 -383 -34 -36 -280 424 -279
522 0 9 73 110 163 223 89 113 313 398 497 632 184 234 336 424 338 422 2 -2
-8 -38 -22 -81z"/>
<path d="M13522 5385 c-97 -130 -213 -355 -266 -518 -71 -214 -101 -423 -93
-632 28 -658 374 -1167 920 -1350 457 -153 851 -91 1231 194 149 112 265 242
539 603 l28 37 -31 98 c-69 213 -104 448 -103 693 1 261 37 494 118 752 24 77
40 136 35 132 -4 -5 -34 -50 -68 -100 -89 -134 -284 -409 -402 -569 -508 -687
-903 -1068 -1230 -1191 -66 -24 -89 -28 -190 -28 -96 0 -127 5 -192 26 -122
40 -204 92 -293 183 -167 170 -255 406 -255 685 0 139 22 265 75 425 64 198
141 341 251 470 56 67 57 68 40 95 -9 15 -20 45 -24 66 l-8 39 -82 -110z"/>
<path d="M18032 2598 l3 -593 118 -3 117 -3 0 596 0 595 -120 0 -120 0 2 -592z"/>
<path d="M16570 2822 c-77 -22 -142 -88 -160 -161 -18 -76 -7 -165 28 -221 37
-60 100 -93 230 -118 127 -25 154 -41 150 -85 -4 -47 -35 -59 -138 -54 -69 3
-98 10 -154 35 -38 18 -70 31 -71 30 -9 -10 -75 -150 -75 -158 0 -13 102 -63
165 -81 77 -21 276 -19 344 5 69 24 145 95 160 151 14 51 14 129 0 180 -26 96
-92 139 -274 179 -109 24 -135 39 -135 76 0 62 128 73 251 21 40 -17 73 -30
74 -28 22 34 75 138 75 146 0 17 -88 63 -159 83 -83 23 -233 23 -311 0z"/>
<path d="M17363 2820 c-39 -10 -90 -28 -113 -40 -47 -24 -47 -22 1 -128 27
-60 29 -62 51 -51 69 37 203 50 263 25 44 -19 55 -42 55 -116 l0 -60 -27 7
c-47 13 -245 9 -286 -6 -90 -31 -146 -114 -147 -215 0 -125 52 -201 157 -232
100 -29 258 -3 302 49 18 22 31 21 31 -2 0 -48 7 -51 112 -51 l99 0 -3 328
c-3 313 -4 329 -25 367 -32 60 -82 103 -146 125 -75 26 -223 26 -324 0z m235
-516 c19 -4 23 -10 20 -36 -4 -43 -62 -89 -121 -95 -39 -5 -49 -2 -71 20 -14
14 -26 37 -26 49 0 32 25 66 53 70 26 4 112 0 145 -8z"/>
<path d="M18643 2820 c-92 -33 -138 -75 -178 -163 -23 -49 -27 -75 -32 -184
-12 -269 35 -380 187 -452 49 -23 67 -26 170 -26 104 0 121 3 172 27 130 60
178 151 186 349 10 269 -52 398 -219 450 -82 25 -215 25 -286 -1z m191 -190
c14 -5 35 -24 46 -42 17 -29 20 -51 20 -173 0 -121 -3 -144 -20 -172 -41 -68
-149 -63 -186 9 -22 43 -31 203 -15 280 19 90 79 127 155 98z"/>
<path d="M19626 2820 c-26 -10 -56 -26 -65 -34 -24 -22 -27 -20 -40 14 l-10
31 -103 -3 -103 -3 0 -410 0 -410 120 0 120 0 3 280 c2 267 3 280 23 301 28
29 70 46 105 42 21 -2 34 -12 46 -38 16 -31 18 -68 18 -313 l0 -278 118 3 117
3 3 284 c3 311 1 305 64 337 37 19 71 18 99 -5 l24 -19 0 -299 0 -298 118 -3
118 -3 -3 343 c-3 329 -4 345 -25 383 -44 82 -104 115 -213 115 -78 0 -150
-23 -206 -65 l-35 -27 -21 27 c-49 63 -174 83 -272 45z"/>
<path d="M20783 2821 c-72 -25 -127 -65 -162 -120 -46 -72 -53 -119 -49 -313
3 -155 6 -178 27 -220 28 -58 97 -123 159 -150 102 -45 294 -32 415 28 83 42
81 36 37 125 -22 43 -43 79 -47 79 -3 0 -36 -12 -72 -27 -51 -20 -84 -27 -143
-27 -71 -1 -80 1 -104 25 -18 19 -28 41 -31 73 l-6 46 237 0 236 0 0 109 c0
153 -23 225 -94 297 -43 42 -66 56 -121 73 -86 27 -209 28 -282 2z m210 -201
c25 -20 47 -73 47 -112 0 -16 -12 -18 -114 -18 -63 0 -117 4 -120 8 -12 19 8
85 34 112 24 26 36 30 78 30 35 0 57 -6 75 -20z"/>
<path d="M22546 2820 c-26 -10 -56 -26 -65 -34 -25 -23 -41 -20 -41 9 l0 25
-110 0 -110 0 0 -405 0 -405 120 0 120 0 0 280 0 280 42 30 c49 36 98 40 128
10 19 -19 20 -33 20 -310 l0 -290 120 0 120 0 0 279 0 279 40 36 c32 28 48 36
79 36 70 0 71 -3 71 -337 l0 -293 121 0 120 0 -3 328 -3 328 -30 60 c-38 74
-87 104 -180 111 -81 7 -154 -11 -216 -53 l-50 -33 -33 32 c-57 58 -167 73
-260 37z"/>
<path d="M23720 2826 c-94 -27 -161 -81 -202 -165 -22 -43 -23 -57 -23 -246 0
-186 2 -203 22 -246 67 -137 220 -199 419 -169 76 11 191 57 214 85 16 19 -59
168 -80 161 -8 -3 -46 -17 -85 -30 -79 -29 -162 -33 -204 -11 -30 15 -50 53
-54 100 l-2 30 233 3 234 2 -4 138 c-4 113 -8 145 -26 183 -30 64 -96 125
-162 151 -68 26 -213 34 -280 14z m181 -197 c27 -14 46 -48 53 -96 l6 -43
-121 0 -122 0 6 40 c3 23 13 52 22 66 31 47 102 62 156 33z"/>
<path d="M24579 2827 c-104 -30 -174 -92 -210 -188 -26 -67 -28 -370 -3 -442
19 -56 81 -129 137 -162 114 -66 316 -55 455 25 l53 31 -42 80 c-33 62 -45 79
-58 73 -74 -31 -115 -43 -162 -48 -127 -13 -169 40 -169 214 0 127 11 171 51
204 26 22 40 26 92 26 56 0 92 -11 192 -56 6 -2 28 31 50 75 46 96 46 96 -63
142 -66 27 -91 33 -177 36 -62 2 -117 -2 -146 -10z"/>
<path d="M25375 2826 c-74 -17 -172 -54 -181 -67 -5 -8 46 -137 62 -157 1 -2
32 6 69 17 118 37 237 24 265 -28 5 -11 10 -47 10 -81 l0 -61 -47 8 c-71 12
-212 8 -258 -6 -88 -29 -140 -90 -151 -178 -13 -107 20 -194 91 -240 84 -55
244 -52 338 7 27 16 50 30 52 30 2 0 6 -13 10 -30 l7 -30 99 0 100 0 -3 313
c-3 302 -4 314 -26 363 -48 105 -124 147 -277 151 -59 1 -124 -3 -160 -11z
m216 -522 c5 -3 9 -18 9 -34 0 -55 -98 -113 -164 -96 -61 15 -77 88 -28 126
24 20 35 22 100 16 41 -3 78 -8 83 -12z"/>
<path d="M4197 2724 c-4 -4 -7 -99 -7 -211 0 -111 -2 -203 -5 -203 -3 0 -25
15 -50 34 -171 131 -425 50 -525 -167 -77 -168 -60 -362 47 -514 45 -64 77
-93 148 -134 34 -20 55 -23 135 -24 85 0 100 3 140 27 25 14 56 38 69 52 14
14 28 26 33 26 4 0 8 -22 8 -50 l0 -50 115 0 115 0 -2 608 -3 607 -106 3 c-58
1 -108 -1 -112 -4z m-119 -544 c77 -47 112 -120 112 -235 0 -137 -78 -235
-187 -235 -62 0 -95 14 -140 62 -46 48 -63 96 -63 180 1 106 51 202 125 234
46 20 115 17 153 -6z"/>
<path d="M8077 2643 c-4 -3 -7 -62 -7 -129 l0 -123 -47 -3 -48 -3 0 -80 0 -80
47 -3 46 -3 4 -252 3 -252 28 -57 c53 -108 157 -166 277 -155 61 5 91 18 158
66 l42 31 -40 80 c-22 44 -43 80 -46 80 -2 0 -14 -9 -26 -20 -30 -28 -86 -36
-117 -19 -47 26 -51 48 -51 282 l0 217 100 0 100 0 0 85 0 85 -100 0 -100 0 0
130 0 130 -108 0 c-60 0 -112 -3 -115 -7z"/>
<path d="M1998 2395 c-105 -29 -199 -94 -257 -179 -47 -67 -81 -181 -81 -266
0 -86 35 -199 82 -268 37 -54 116 -117 188 -151 49 -22 68 -25 170 -26 110 0
118 1 180 32 66 33 170 116 170 135 0 11 -105 144 -122 154 -6 4 -26 -10 -46
-31 -53 -54 -107 -79 -172 -79 -140 2 -234 119 -216 271 9 76 37 126 93 165
45 31 54 33 128 33 87 0 117 -11 180 -67 20 -17 37 -29 39 -27 35 42 106 151
106 162 0 9 -21 32 -46 51 -120 92 -270 126 -396 91z"/>
<path d="M2885 2395 c-138 -34 -251 -140 -306 -287 -37 -99 -27 -276 23 -372
28 -56 94 -129 146 -164 82 -55 129 -67 257 -66 92 0 118 4 160 23 240 108
339 391 224 636 -29 61 -129 165 -189 195 -93 47 -213 61 -315 35z m218 -231
c54 -39 88 -99 94 -173 11 -121 -21 -203 -100 -255 -33 -21 -53 -26 -102 -26
-137 0 -218 111 -202 279 8 95 58 167 137 200 45 19 126 7 173 -25z"/>
<path d="M4919 2396 c-113 -33 -221 -117 -266 -207 -75 -151 -71 -353 11 -492
34 -59 116 -132 185 -164 51 -25 67 -27 181 -27 116 -1 129 1 184 27 66 30
145 86 146 102 0 11 -107 138 -121 143 -5 2 -18 -6 -30 -17 -43 -40 -91 -56
-171 -56 -69 0 -80 3 -119 30 -49 34 -91 91 -87 114 3 14 41 16 301 19 l297 2
0 115 c0 91 -4 125 -21 170 -56 149 -195 243 -369 251 -43 2 -95 -2 -121 -10z
m191 -211 c50 -26 101 -108 84 -136 -7 -11 -351 -12 -358 -1 -3 5 4 28 16 51
45 91 167 131 258 86z"/>
<path d="M9005 2395 c-158 -29 -289 -155 -323 -310 -29 -130 -18 -251 32 -356
32 -68 113 -150 181 -184 100 -49 251 -57 355 -20 50 17 170 95 170 109 0 5
-17 29 -37 54 -21 25 -47 56 -59 70 l-21 25 -39 -30 c-21 -17 -56 -36 -77 -43
-51 -16 -134 -14 -177 4 -37 15 -90 66 -110 104 -26 52 -24 52 301 52 l302 0
-6 113 c-4 61 -12 130 -19 152 -32 101 -101 179 -201 228 -47 23 -77 29 -187
41 -14 2 -52 -2 -85 -9z m148 -199 c51 -19 76 -42 99 -94 30 -67 25 -69 -173
-70 -189 -1 -190 0 -169 63 13 39 61 81 117 101 48 17 78 17 126 0z"/>
<path d="M6540 2393 c-77 -15 -227 -85 -237 -109 -5 -14 84 -154 97 -154 5 0
12 4 15 10 8 13 101 55 140 64 70 15 88 16 128 5 23 -6 52 -22 64 -35 24 -26
41 -91 27 -104 -5 -4 -76 -10 -159 -12 -135 -4 -155 -7 -205 -31 -110 -51
-156 -129 -148 -250 8 -117 60 -197 164 -248 40 -19 65 -24 134 -24 74 0 91 3
130 26 25 15 54 36 64 48 28 31 36 26 36 -24 l0 -46 108 3 107 3 3 285 c4 373
-8 440 -90 516 -65 62 -111 77 -238 80 -63 1 -126 0 -140 -3z m240 -530 c0
-112 -93 -188 -200 -164 -61 14 -90 45 -90 97 0 35 5 47 31 68 29 25 36 26
145 26 l114 0 0 -27z"/>
<path d="M7425 2391 c-138 -36 -228 -159 -210 -288 16 -118 76 -171 275 -239
85 -29 150 -77 150 -110 0 -9 -14 -29 -31 -46 -30 -30 -31 -31 -106 -24 -57 4
-94 15 -149 41 -41 20 -74 40 -74 45 0 29 -33 2 -75 -62 l-47 -71 23 -19 c44
-34 113 -69 179 -91 97 -32 256 -31 325 3 60 29 119 86 141 137 24 52 24 187
1 229 -33 63 -97 102 -261 159 -120 41 -153 69 -140 119 14 58 149 62 254 8
34 -17 66 -30 70 -27 16 10 81 148 73 155 -4 4 -33 20 -63 35 -30 15 -64 32
-75 38 -25 13 -219 19 -260 8z"/>
<path d="M10080 2393 c-36 -12 -69 -30 -118 -66 -30 -21 -56 -36 -59 -34 -3 3
-6 25 -7 49 l-1 43 -113 3 -112 3 2 -438 3 -438 90 -2 c148 -4 134 -28 134
223 0 235 4 269 33 329 40 80 93 115 174 115 l44 0 0 110 0 110 -27 -1 c-16 0
-35 -3 -43 -6z"/>
<path d="M21364 2156 c-3 -7 -4 -42 -2 -77 l3 -64 378 -3 377 -2 0 80 0 80
-375 0 c-307 0 -377 -2 -381 -14z"/>
<path d="M19480 1793 c-23 -9 -60 -45 -76 -75 -21 -41 -20 -288 2 -334 34 -72
143 -100 233 -60 45 21 46 23 27 49 -12 16 -17 16 -56 2 -60 -21 -84 -19 -119
11 l-31 26 0 138 c0 122 2 140 20 163 27 35 67 41 125 21 46 -15 50 -15 62 1
16 22 12 29 -31 49 -33 15 -124 21 -156 9z"/>
<path d="M20430 1778 c-70 -48 -75 -64 -75 -221 0 -161 9 -189 71 -228 27 -16
52 -22 94 -22 74 0 118 24 148 83 19 39 22 60 22 166 0 106 -3 126 -23 164
-29 56 -74 80 -148 80 -42 0 -65 -6 -89 -22z m165 -70 c24 -28 25 -36 25 -149
0 -140 -11 -171 -65 -189 -27 -9 -43 -9 -70 0 -54 18 -65 49 -65 188 0 135 12
164 73 180 46 12 74 4 102 -30z"/>
<path d="M22334 1790 c-11 -4 -33 -22 -47 -40 -34 -40 -37 -109 -7 -157 23
-39 44 -50 112 -63 64 -13 94 -31 102 -65 10 -41 -13 -78 -60 -94 -38 -13 -47
-13 -103 6 -59 19 -62 19 -71 2 -16 -30 -12 -37 38 -56 57 -21 146 -22 187 -1
52 27 68 54 73 118 4 57 3 61 -30 94 -19 19 -52 39 -74 44 -21 6 -50 13 -64
16 -63 15 -87 72 -50 119 18 23 29 27 68 27 26 0 60 -7 77 -16 27 -14 30 -14
42 3 18 24 12 35 -28 55 -36 19 -128 23 -165 8z"/>
<path d="M25140 1781 c-67 -36 -75 -56 -78 -214 -2 -121 0 -147 15 -176 51
-97 196 -116 274 -35 l34 35 3 147 c3 167 -6 198 -67 239 -44 29 -130 31 -181
4z m125 -45 c56 -24 67 -59 63 -196 -3 -109 -5 -121 -27 -144 -13 -14 -36 -28
-51 -31 -35 -8 -95 17 -110 45 -7 13 -12 72 -12 145 -1 140 9 168 65 184 17 5
33 10 35 10 1 1 18 -5 37 -13z"/>
<path d="M16380 1553 l0 -238 140 0 140 0 0 28 0 27 -105 0 -105 0 0 80 0 80
85 0 85 0 0 31 c0 23 -4 30 -17 28 -10 -1 -49 -1 -86 0 l-68 1 3 71 3 71 98 0
97 0 0 29 0 29 -135 0 -135 0 0 -237z"/>
<path d="M16730 1783 c0 -4 29 -57 64 -117 l64 -110 -31 -55 c-17 -31 -38 -67
-47 -81 -10 -14 -27 -43 -38 -66 l-20 -40 36 1 c36 2 38 4 87 93 27 51 52 92
55 92 4 0 30 -41 58 -91 49 -89 52 -92 86 -93 20 -1 36 1 36 3 0 2 -29 54 -65
116 -36 61 -65 117 -65 124 0 11 73 140 116 207 16 24 16 24 -22 24 -39 0 -40
-1 -89 -90 -27 -50 -52 -90 -55 -90 -3 0 -26 39 -52 88 -44 82 -48 87 -82 90
-20 2 -36 0 -36 -5z"/>
<path d="M17162 1553 l3 -236 33 -1 32 -1 0 78 0 77 70 0 c132 0 180 43 180
161 0 52 -5 73 -23 100 -34 51 -58 59 -185 59 l-112 0 2 -237z m225 164 c19
-12 35 -76 29 -112 -10 -53 -46 -75 -122 -75 l-64 0 0 99 0 100 33 3 c37 4
108 -5 124 -15z"/>
<path d="M17590 1553 l0 -238 135 0 135 0 0 28 0 27 -100 0 -100 0 0 80 0 80
86 0 85 0 -3 28 c-3 27 -3 27 -83 28 l-80 0 -3 72 c-3 82 -16 75 121 73 l77
-2 0 31 0 30 -135 0 -135 0 0 -237z"/>
<path d="M17962 1553 l3 -236 33 -2 32 -1 0 99 0 100 42 -7 c23 -4 43 -8 44
-9 1 -1 16 -31 34 -67 45 -91 74 -120 122 -120 33 0 38 3 38 24 0 18 -7 25
-27 29 -22 4 -35 19 -60 71 -18 37 -33 68 -33 71 0 2 13 11 30 20 39 20 60 63
60 122 0 60 -16 91 -59 120 -30 21 -46 23 -148 23 l-113 0 2 -237z m239 148
c22 -26 24 -59 8 -94 -16 -36 -48 -48 -114 -45 l-60 3 -3 79 c-2 45 1 82 7 85
5 4 40 4 77 1 53 -5 70 -10 85 -29z"/>
<path d="M18390 1555 l0 -235 30 0 30 0 0 235 0 235 -30 0 -30 0 0 -235z"/>
<path d="M18570 1553 l0 -238 125 2 c69 1 132 2 140 2 9 1 15 11 15 26 l0 25
-105 0 -105 0 0 80 0 80 85 0 85 0 0 31 0 30 -82 -2 -83 -2 -3 71 -3 72 43 1
c24 1 69 1 101 1 57 -1 57 -1 57 28 l0 30 -135 0 -135 0 0 -237z"/>
<path d="M18950 1553 l0 -239 30 1 30 0 0 162 c0 150 7 191 25 146 5 -14 159
-286 171 -301 1 -2 16 -5 33 -6 l31 -2 0 238 0 238 -30 0 -30 0 -2 -167 -3
-168 -96 165 c-89 153 -98 165 -128 168 l-31 3 0 -238z"/>
<path d="M19782 1553 l3 -236 133 -1 132 -1 0 27 0 27 -102 3 -103 3 -3 78 -3
77 91 0 90 0 0 30 0 30 -90 0 -90 0 0 70 c0 39 3 70 8 70 4 1 50 2 102 3 l95
2 3 28 3 27 -136 0 -135 0 2 -237z"/>
<path d="M20800 1551 l0 -239 33 3 c32 2 32 3 34 56 1 30 2 64 2 77 1 21 5 22
69 22 76 0 124 19 156 63 28 38 29 159 2 200 -32 47 -64 57 -186 57 l-110 0 0
-239z m230 152 c30 -39 28 -116 -5 -149 -22 -22 -32 -25 -91 -22 l-67 3 0 93
c0 55 4 97 10 100 6 4 38 5 72 4 51 -3 64 -8 81 -29z"/>
<path d="M21232 1554 l3 -235 120 0 c66 -1 126 0 133 0 6 1 12 12 12 26 0 24
-1 24 -102 27 l-103 3 -3 78 -3 77 86 0 85 0 0 31 c0 30 0 30 -52 29 -29 -1
-68 -1 -85 -1 l-33 1 0 70 c0 80 -12 73 123 71 l87 -1 0 30 0 30 -135 0 -135
0 2 -236z"/>
<path d="M21600 1552 l0 -239 30 5 30 4 0 167 c1 193 -7 193 102 1 101 -177
101 -178 137 -172 l31 4 0 234 0 234 -37 0 -36 0 6 -165 c3 -91 3 -165 -1
-165 -4 0 -50 74 -102 165 -92 159 -96 165 -127 165 l-33 0 0 -238z"/>
<path d="M22670 1552 l0 -239 23 3 c12 1 25 3 30 3 4 1 7 107 7 236 l0 235
-30 0 -30 0 0 -238z"/>
<path d="M22850 1552 l0 -239 23 3 c12 1 25 3 30 3 4 1 7 67 7 147 0 97 3 143
10 139 6 -4 30 -48 54 -99 24 -51 48 -96 54 -100 22 -13 39 8 92 112 l55 107
3 -158 c2 -139 4 -158 18 -153 9 3 22 6 30 6 12 0 14 39 14 235 l0 235 -25 0
c-22 0 -33 -16 -96 -141 -39 -78 -74 -138 -79 -133 -4 5 -38 69 -74 142 -59
115 -70 132 -91 132 l-25 0 0 -238z"/>
<path d="M23360 1596 c0 -115 4 -206 11 -225 22 -63 138 -88 199 -43 35 26 38
27 42 5 2 -10 13 -17 31 -17 l27 -2 0 238 0 238 -30 0 -30 0 0 -189 0 -190
-27 -19 c-39 -27 -68 -35 -103 -27 -53 12 -60 41 -60 245 l0 180 -30 0 -30 0
0 -194z"/>
<path d="M23792 1554 l3 -235 133 -2 132 -2 0 28 0 27 -100 0 -100 0 -1 38 c0
20 -1 115 -1 210 l0 172 -34 0 -34 0 2 -236z"/>
<path d="M24197 1568 c-42 -123 -77 -229 -79 -237 -2 -10 7 -14 32 -14 34 -1
35 1 53 62 l19 62 86 -3 86 -3 19 -61 c17 -59 18 -60 52 -60 20 1 34 6 32 11
-2 6 -12 35 -22 65 -16 51 -39 120 -110 323 -26 75 -28 77 -59 77 l-32 0 -77
-222z m147 27 c14 -49 26 -93 26 -97 0 -4 -29 -8 -65 -8 -45 0 -65 4 -65 12 0
29 63 199 70 191 5 -4 20 -48 34 -98z"/>
<path d="M24480 1761 c0 -28 1 -28 57 -30 31 0 60 -4 65 -9 4 -4 9 -97 10
-206 l3 -199 28 -1 27 -2 0 208 c0 159 3 208 13 209 6 0 35 1 62 2 47 2 50 4
53 30 l3 27 -160 0 -161 0 0 -29z"/>
<path d="M24880 1551 c0 -222 1 -239 18 -236 9 2 25 4 35 4 16 1 17 19 17 236
l0 235 -35 0 -35 0 0 -239z"/>
<path d="M25510 1560 c0 -126 1 -233 3 -237 1 -5 13 -8 27 -8 l25 0 5 170 5
170 69 -120 c38 -66 81 -141 95 -167 24 -44 29 -48 64 -48 l37 0 0 235 0 235
-35 0 -35 0 -2 -167 -3 -168 -29 50 c-16 28 -60 103 -98 168 -63 108 -71 117
-98 117 l-30 0 0 -230z"/>
<path d="M5570 1365 l0 -65 315 0 315 0 0 65 0 65 -315 0 -315 0 0 -65z"/>
</g>
</svg>
