<?xml version="1.0" standalone="no"?>
<!DOCTYPE svg PUBLIC "-//W3C//DTD SVG 20010904//EN"
 "http://www.w3.org/TR/2001/REC-SVG-20010904/DTD/svg10.dtd">
<svg version="1.0" xmlns="http://www.w3.org/2000/svg"
 width="500.000000pt" height="383.000000pt" viewBox="0 0 500.000000 383.000000"
 preserveAspectRatio="xMidYMid meet">

<g transform="translate(0.000000,383.000000) scale(0.100000,-0.100000)"
fill="#000000" stroke="none">
<path d="M2247 3454 c-327 -59 -598 -263 -743 -559 -87 -179 -99 -235 -98
-460 0 -181 2 -194 28 -275 57 -172 138 -303 271 -435 99 -99 255 -210 310
-221 42 -8 91 10 110 40 8 12 156 421 331 910 284 799 316 893 308 924 -14 54
-45 70 -163 82 -136 13 -258 11 -354 -6z"/>
<path d="M3117 3387 c-19 -14 -657 -1843 -657 -1883 0 -14 11 -36 25 -49 l24
-25 616 0 c617 0 646 1 667 34 24 35 26 29 -424 1321 -206 592 -206 591 -222
604 -9 8 -17 7 -29 -2z"/>
<path d="M1490 1041 l0 -120 -36 24 c-67 46 -142 46 -220 0 -148 -87 -150
-328 -3 -435 73 -52 170 -49 232 8 l27 26 0 -32 0 -32 70 0 70 0 -2 338 -3
337 -67 3 -68 3 0 -120z m-51 -197 c30 -21 51 -73 51 -124 0 -113 -107 -170
-185 -97 -59 54 -61 147 -4 205 25 26 39 32 73 32 23 0 52 -7 65 -16z"/>
<path d="M3780 1040 l0 -70 -30 0 c-29 0 -30 -1 -30 -50 0 -49 1 -50 30 -50
l30 0 0 -140 c0 -153 7 -181 56 -219 60 -48 152 -48 214 -1 l25 19 -23 46
c-21 44 -23 45 -44 30 -30 -20 -61 -19 -81 3 -14 15 -17 41 -17 140 l0 122 60
0 60 0 0 50 0 50 -60 0 -60 0 0 70 0 70 -65 0 -65 0 0 -70z"/>
<path d="M195 971 c-78 -19 -161 -96 -183 -169 -60 -198 130 -383 326 -318 48
16 127 69 127 85 0 5 -17 27 -38 50 l-38 42 -34 -29 c-61 -55 -139 -50 -190 9
-36 43 -36 125 0 168 49 57 128 64 198 17 l35 -24 33 46 33 45 -35 29 c-57 48
-154 68 -234 49z"/>
<path d="M700 965 c-105 -33 -170 -126 -170 -242 0 -118 67 -207 179 -240 102
-29 204 -1 273 75 84 93 84 241 0 334 -20 22 -53 48 -74 59 -51 26 -150 33
-208 14z m159 -131 c63 -53 65 -152 5 -212 -32 -32 -38 -34 -85 -30 -60 6 -95
35 -110 90 -14 55 -1 107 37 146 43 43 107 45 153 6z"/>
<path d="M1896 965 c-54 -19 -107 -64 -136 -116 -34 -60 -36 -183 -3 -245 67
-126 236 -170 368 -95 27 16 50 33 50 38 0 5 -14 26 -32 46 l-32 37 -35 -20
c-77 -46 -206 -9 -206 59 0 7 58 11 175 11 l175 0 0 67 c0 81 -25 139 -77 178
-67 52 -169 68 -247 40z m120 -105 c22 0 64 -46 64 -70 0 -19 -6 -20 -105 -20
-115 0 -123 5 -84 54 20 26 73 48 97 40 8 -2 20 -4 28 -4z"/>
<path d="M2852 964 c-55 -14 -107 -38 -116 -52 -6 -9 43 -82 55 -82 4 0 26 9
50 20 81 36 161 21 171 -33 5 -24 3 -24 -90 -30 -109 -8 -168 -30 -195 -76
-21 -37 -22 -103 -1 -147 43 -91 184 -119 268 -53 l26 20 0 -25 c0 -25 2 -26
65 -26 l65 0 0 171 c0 102 -5 187 -12 211 -16 52 -64 93 -128 107 -65 14 -92
13 -158 -5z m158 -298 c0 -38 -10 -56 -41 -71 -52 -27 -115 -10 -126 33 -10
41 26 62 103 62 61 0 64 -1 64 -24z"/>
<path d="M3405 971 c-87 -23 -135 -75 -135 -148 0 -60 35 -95 138 -138 120
-49 137 -68 87 -101 -21 -13 -32 -14 -77 -5 -29 7 -68 21 -86 31 -18 11 -35
20 -36 20 -2 0 -16 -18 -30 -41 -26 -39 -27 -41 -9 -55 38 -29 129 -56 193
-58 120 -2 190 57 190 161 0 48 -4 58 -30 83 -18 17 -64 40 -110 55 -103 34
-128 57 -95 85 23 19 96 15 141 -8 l40 -20 22 38 c12 22 22 43 22 48 0 15 -97
53 -148 57 -26 2 -60 1 -77 -4z"/>
<path d="M4315 971 c-118 -31 -186 -121 -186 -247 0 -129 72 -218 197 -244 40
-9 68 -9 107 0 50 10 137 54 137 68 0 4 -17 24 -36 45 -33 36 -37 37 -53 22
-27 -23 -81 -36 -123 -29 -41 6 -98 52 -98 78 0 14 22 16 180 16 l180 0 0 38
c-1 57 -18 123 -44 162 -45 68 -175 114 -261 91z m110 -116 c29 -14 55 -50 55
-75 0 -6 -47 -10 -111 -10 -110 0 -110 0 -103 23 9 32 25 48 59 63 40 17 60
17 100 -1z"/>
<path d="M4947 965 c-22 -7 -49 -23 -61 -34 -30 -28 -36 -26 -36 9 l0 30 -65
0 -65 0 0 -245 0 -245 65 0 65 0 0 123 c0 67 5 139 10 159 14 48 61 88 106 88
l34 0 0 65 c0 36 -3 65 -7 65 -5 -1 -25 -7 -46 -15z"/>
<path d="M2300 400 l0 -40 185 0 185 0 0 40 0 40 -185 0 -185 0 0 -40z"/>
</g>
</svg>
